<svg xmlns="http://www.w3.org/2000/svg" viewBox="0 0 1024 1024">
  <!-- Tab favicon: same art as icon.svg, pre-rounded with transparent corners
       (browsers don't mask favicons). Keep in sync with icon.svg. -->
  <defs>
    <linearGradient id="bg" x1="0" y1="0" x2="1" y2="1">
      <stop offset="0" stop-color="#222840"/>
      <stop offset="0.55" stop-color="#12151f"/>
      <stop offset="1" stop-color="#0b0d12"/>
    </linearGradient>
    <linearGradient id="wing" x1="0.18" y1="0" x2="0.82" y2="1">
      <stop offset="0" stop-color="#a5acff"/>
      <stop offset="0.5" stop-color="#6a6df5"/>
      <stop offset="1" stop-color="#4d43d6"/>
    </linearGradient>
    <radialGradient id="sheen" cx="0.36" cy="0.28" r="0.8">
      <stop offset="0" stop-color="#ffffff" stop-opacity="0.34"/>
      <stop offset="0.45" stop-color="#ffffff" stop-opacity="0.08"/>
      <stop offset="1" stop-color="#ffffff" stop-opacity="0"/>
    </radialGradient>
    <filter id="glow" x="-50%" y="-50%" width="200%" height="200%">
      <feGaussianBlur stdDeviation="85"/>
    </filter>
    <filter id="soft" x="-50%" y="-50%" width="200%" height="200%">
      <feGaussianBlur stdDeviation="26"/>
    </filter>
    <clipPath id="rounded">
      <rect width="1024" height="1024" rx="230"/>
    </clipPath>
  </defs>

  <g clip-path="url(#rounded)">
    <rect width="1024" height="1024" fill="url(#bg)"/>
    <circle cx="512" cy="520" r="400" fill="#818cf8" opacity="0.26" filter="url(#glow)"/>

    <g transform="translate(512 540) scale(1.07) translate(-512 -540)">
      <ellipse cx="512" cy="874" rx="268" ry="44" fill="#000000" opacity="0.45" filter="url(#soft)"/>

      <path d="M 466 246 Q 420 158 364 122" stroke="#4d5779" stroke-width="22" stroke-linecap="round" fill="none"/>
      <path d="M 558 246 Q 604 158 660 122" stroke="#4d5779" stroke-width="22" stroke-linecap="round" fill="none"/>
      <circle cx="364" cy="122" r="21" fill="#4d5779"/>
      <circle cx="660" cy="122" r="21" fill="#4d5779"/>

      <circle cx="512" cy="318" r="118" fill="#323a5e"/>

      <circle cx="512" cy="565" r="285" fill="url(#wing)"/>
      <circle cx="512" cy="565" r="285" fill="url(#sheen)"/>

      <line x1="512" y1="280" x2="512" y2="850" stroke="#12151f" stroke-width="22"/>

      <circle cx="398" cy="455" r="50" fill="#3b82f6"/>
      <circle cx="372" cy="650" r="62" fill="#f97316"/>
      <circle cx="633" cy="448" r="54" fill="#f59e0b"/>
      <circle cx="650" cy="655" r="70" fill="#ef4444"/>
    </g>
  </g>
</svg>
